<?xml version="1.0" encoding="utf-8"?>
<!-- Generator: Adobe Illustrator 23.0.1, SVG Export Plug-In . SVG Version: 6.00 Build 0)  -->
<svg version="1.1" id="Layer_1" xmlns="http://www.w3.org/2000/svg" xmlns:xlink="http://www.w3.org/1999/xlink" x="0px" y="0px"
	 viewBox="0 0 345 54" style="enable-background:new 0 0 345 54;" xml:space="preserve">
<style type="text/css">
	.st0{fill:#66BB6A;}
	.st1{fill:#616161;}
</style>
<g>
	<polygon class="st0" points="27.9858398,30.8203125 39.6552734,30.8203125 33.8203125,17.5893555 	"/>
	<path class="st0" d="M79.3291016,16.0244141c-1.5175781-1.0112305-3.9868164-1.5239258-7.3393555-1.5239258h-5.8496094v13.8999023
		h6.784668c3.3618164,0,5.6494141-0.6152344,6.7983398-1.828125c1.1591797-1.2255859,1.746582-3.0874023,1.746582-5.5341797
		C81.4697266,18.625,80.7695312,16.9848633,79.3291016,16.0244141z"/>
	<path class="st0" d="M24,0L0,54h136V0H24z M46.8061523,47.0605469l-3.8500977-8.7451172H24.6845703l-3.8496094,8.7451172H12.265625
		L29.8662109,7.1157227h7.9086914l17.6005859,39.9448242H46.8061523z M85.2431641,32.378418
		c-2.8544922,2.2607422-7.2392578,3.4072266-13.0332031,3.4072266h-6.0698242v11.2749023h-7.9902344V7.1157227h13.9501953
		c5.9824219,0,10.4375,1.1875,13.2407227,3.5292969C88.1835938,13.0209961,89.625,16.6938477,89.625,21.5605469
		C89.625,26.4355469,88.1508789,30.0751953,85.2431641,32.378418z M129.8901367,47.0605469h-9.5429688l-12.4448242-16.4145508
		l-4.8022461,5.1791992v11.2353516h-7.9902344V7.1157227h7.9902344v17.6098633L119.625,7.1157227h10.2817383l-16.1948242,17.6352539
		L129.8901367,47.0605469z"/>
</g>
<g>
	<path class="st1" d="M171.2211914,27.2626953c-2.0800781-1.7929688-5.1831055-3.1982422-9.2236328-4.1762695
		c-3.8349609-0.9272461-6.3520508-1.7880859-7.4814453-2.5581055c-1.0009766-0.6821289-1.4873047-1.6489258-1.4873047-2.9550781
		c0-1.2958984,0.4799805-2.2314453,1.4677734-2.8598633c1.081543-0.6884766,2.5097656-1.0375977,4.2446289-1.0375977
		c1.7978516,0,3.6503906,0.3198242,5.5063477,0.949707c1.8364258,0.6240234,3.3027344,1.4233398,4.3588867,2.3764648
		l0.6269531,0.565918l4.3530273-6.1494141l-0.5327148-0.4438477c-1.824707-1.5205078-4.0161133-2.7133789-6.5131836-3.5454102
		c-2.4863281-0.8286133-5.0273438-1.2485352-7.5517578-1.2485352c-3.9604492,0-7.3398438,1.0214844-10.0454102,3.0356445
		c-2.7729492,2.0654297-4.1791992,5.034668-4.1791992,8.8242188c0,3.7880859,1.2470703,6.6538086,3.6884766,8.503418
		c1.1918945,0.9619141,2.5732422,1.7504883,4.1049805,2.3432617c1.4882812,0.5776367,3.6855469,1.2167969,6.53125,1.8999023
		c2.7167969,0.6533203,4.6367188,1.3720703,5.706543,2.1362305c0.9545898,0.6821289,1.418457,1.6157227,1.418457,2.8544922
		c0,1.2431641-0.5019531,2.2143555-1.5351562,2.9697266c-1.0913086,0.7983398-2.6171875,1.203125-4.534668,1.203125
		c-3.9755859,0-7.8813477-1.640625-11.6083984-4.8764648l-0.5786133-0.5024414l-5.0234375,6.0419922l0.5419922,0.4819336
		c4.7744141,4.25,10.3271484,6.4047852,16.503418,6.4047852c4.2661133,0,7.7763672-1.1123047,10.4326172-3.3066406
		c2.6992188-2.2299805,4.0673828-5.1723633,4.0673828-8.7456055
		C174.4790039,31.8818359,173.3828125,29.1279297,171.2211914,27.2626953z"/>
	<rect x="180.3481445" y="7.1157227" class="st1" width="7.9902344" height="39.9448242"/>
	<polygon class="st1" points="193.2182617,14.5556641 204.878418,14.5556641 204.878418,47.0605469 212.8681641,47.0605469 
		212.8681641,14.5556641 224.5283203,14.5556641 224.5283203,7.1157227 193.2182617,7.1157227 	"/>
	<path class="st1" d="M246.8774414,6.1806641c-5.8964844,0-10.9208984,1.9868164-14.934082,5.9057617
		c-4.0185547,3.9238281-6.0561523,8.878418-6.0561523,14.7265625s2.0375977,10.8027344,6.0561523,14.7265625
		c4.0131836,3.9189453,9.0375977,5.9057617,14.934082,5.9057617c5.8955078,0,10.9199219-1.9868164,14.9335938-5.9057617
		c4.0185547-3.9243164,6.0561523-8.8789062,6.0561523-14.7265625s-2.0375977-10.8022461-6.0561523-14.7265625
		C257.7973633,8.1674805,252.7729492,6.1806641,246.8774414,6.1806641z M246.8774414,40.0053711
		c-3.6362305,0-6.6171875-1.2563477-9.1132812-3.8408203c-2.4697266-2.5556641-3.7216797-5.7016602-3.7216797-9.3515625
		c0-3.6489258,1.2519531-6.7949219,3.7216797-9.3515625c2.4970703-2.5844727,5.4780273-3.8408203,9.1132812-3.8408203
		c3.6342773,0,6.6147461,1.2563477,9.1132812,3.8408203h-0.0004883c2.4697266,2.5571289,3.722168,5.7036133,3.722168,9.3515625
		c0,3.6489258-1.2524414,6.7954102-3.722168,9.3515625C253.4931641,38.7490234,250.512207,40.0053711,246.8774414,40.0053711z"/>
	<path class="st1" d="M306.0917969,20.3505859c0-4.5854492-1.3735352-7.9853516-4.0825195-10.105957
		c-2.652832-2.0761719-7.0463867-3.1289062-13.0576172-3.1289062h-15.0498047v39.9448242h7.9902344V34.1357422h7.3876953
		l9.1850586,12.9248047h10.1020508l-10.324707-14.3310547C303.4526367,30.8071289,306.0917969,26.6479492,306.0917969,20.3505859z
		 M297.9370117,20.3232422c0,2.2719727-0.5786133,3.921875-1.7192383,4.9038086
		c-1.1738281,1.0107422-3.5258789,1.5234375-6.9907227,1.5234375h-7.3349609v-12.25h7.5
		c3.3115234,0,5.6108398,0.4272461,6.8339844,1.2695312C297.3613281,16.5532227,297.9370117,18.0849609,297.9370117,20.3232422z"/>
	<polygon class="st1" points="335.2236328,7.1157227 325.1430664,23.8989258 315.0620117,7.1157227 306.2016602,7.1157227 
		321.0927734,31.3422852 321.0927734,47.0605469 329.1928711,47.0605469 329.1928711,31.3422852 344.0839844,7.1157227 	"/>
</g>
</svg>
